<?xml version="1.0" standalone="no"?>
<!DOCTYPE svg PUBLIC "-//W3C//DTD SVG 20010904//EN"
 "http://www.w3.org/TR/2001/REC-SVG-20010904/DTD/svg10.dtd">
<svg version="1.0" xmlns="http://www.w3.org/2000/svg"
 width="1563.000000pt" height="1563.000000pt" viewBox="0 0 1563.000000 1563.000000"
 preserveAspectRatio="xMidYMid meet">
<metadata>
Created by potrace 1.14, written by Peter Selinger 2001-2017
</metadata>
<g transform="translate(0.000000,1563.000000) scale(0.100000,-0.100000)"
fill="#000000" stroke="none">
<path d="M7475 15619 c-538 -44 -1192 -211 -2015 -514 -732 -270 -970 -349
-1206 -402 -105 -23 -142 -26 -321 -27 -188 -1 -203 -2 -230 -22 -45 -34 -62
-73 -73 -174 -54 -491 -216 -847 -511 -1124 -283 -267 -584 -398 -991 -431
-86 -7 -130 -29 -159 -80 -46 -80 -75 -1080 -86 -2960 -7 -1249 4 -1699 57
-2405 113 -1485 401 -2628 907 -3591 332 -633 805 -1211 1348 -1645 258 -207
432 -323 855 -569 1155 -673 1897 -1124 2455 -1493 235 -156 253 -166 305
-169 l55 -5 200 134 c507 338 1240 787 2260 1383 585 342 712 421 900 559
1073 785 1764 1872 2150 3381 214 838 326 1765 366 3030 26 816 -7 3409 -52
4140 -15 251 -34 277 -206 289 -121 9 -277 38 -380 72 -98 32 -277 117 -369
176 -281 181 -517 483 -628 807 -41 118 -92 351 -106 489 -11 103 -25 137 -70
176 -31 26 -32 26 -213 26 -326 0 -500 46 -1307 342 -1090 401 -1648 552
-2227 603 -178 16 -539 18 -708 4z m780 -303 c561 -68 1058 -207 2040 -569
773 -285 1070 -367 1330 -367 l91 0 18 -107 c57 -335 150 -580 315 -824 290
-431 759 -730 1260 -803 l86 -12 7 -120 c46 -842 71 -3467 40 -4184 -37 -842
-92 -1420 -193 -2022 -308 -1843 -1012 -3119 -2198 -3983 -209 -152 -345 -236
-1031 -633 -667 -386 -1859 -1115 -2122 -1299 -42 -29 -79 -53 -82 -53 -4 0
-40 22 -80 49 -432 292 -1355 856 -2241 1370 -665 386 -803 475 -1068 683
-1029 808 -1667 1947 -1986 3545 -128 639 -190 1196 -242 2153 -36 675 -12
3553 37 4388 l6 112 33 0 c114 0 432 97 598 182 547 281 905 774 1017 1398 11
63 23 125 25 138 5 21 10 22 93 22 165 1 351 37 637 125 184 56 191 58 610
212 562 206 838 301 1080 373 432 127 833 209 1185 239 149 13 580 5 735 -13z"/>
<path d="M7760 15089 c-34 -69 -63 -114 -75 -119 -11 -4 -66 -13 -123 -20 -57
-7 -105 -16 -107 -20 -2 -3 35 -46 84 -94 l87 -87 -19 -120 c-11 -65 -17 -122
-14 -125 3 -3 54 20 113 51 l108 58 108 -58 c60 -31 112 -54 115 -51 3 3 -3
60 -14 125 l-19 120 88 88 c48 48 84 90 80 94 -4 3 -50 12 -102 19 -148 18
-134 9 -198 137 l-57 114 -55 -112z"/>
<path d="M7022 14869 c-5 -13 -20 -56 -32 -96 l-23 -71 -94 -28 c-51 -15 -93
-30 -93 -33 1 -3 36 -31 78 -62 l78 -56 -4 -96 c-2 -54 -1 -97 3 -97 4 0 37
21 73 48 36 26 71 50 78 54 7 5 51 -6 98 -23 48 -18 89 -29 92 -26 3 3 -7 46
-22 96 l-27 90 57 74 c31 40 56 76 56 80 0 4 -45 7 -99 7 l-99 0 -56 81 c-52
77 -56 81 -64 58z"/>
<path d="M8542 14809 l-54 -79 -99 0 c-54 0 -99 -3 -99 -7 0 -4 25 -40 56 -80
l57 -74 -27 -90 c-15 -50 -25 -93 -22 -96 3 -3 44 8 92 26 47 17 91 28 98 23
7 -4 42 -28 78 -54 36 -27 69 -48 73 -48 4 0 5 43 3 96 l-5 96 78 57 c43 31
78 59 79 62 0 3 -42 18 -93 33 l-94 28 -29 90 c-15 49 -31 91 -34 93 -3 1 -29
-33 -58 -76z"/>
<path d="M7625 13789 c-185 -24 -360 -112 -527 -267 -47 -43 -50 -62 -5 -33
134 88 323 167 461 192 109 20 269 13 369 -16 157 -45 331 -151 415 -252 l37
-44 75 7 c108 9 110 13 47 71 -204 186 -434 307 -647 338 -105 16 -123 17
-225 4z"/>
<path d="M8785 13690 c-8 -38 -4 -44 44 -60 22 -7 42 -19 45 -27 3 -7 -30
-164 -74 -348 -44 -183 -80 -337 -80 -341 0 -4 -30 -4 -66 -1 -44 3 -67 1 -69
-7 -2 -6 -6 -23 -9 -37 l-6 -26 181 -42 c99 -24 182 -42 184 -40 2 2 5 19 7
38 3 34 3 34 -68 60 l-71 26 66 277 c36 152 69 279 72 282 3 3 90 -173 194
-392 103 -218 189 -399 191 -400 1 -2 18 -7 38 -12 l35 -8 46 197 c26 108 70
289 97 402 l49 207 65 -6 c35 -2 64 -3 64 -1 0 2 4 18 9 36 l9 32 -168 40
c-92 23 -175 41 -183 41 -21 0 -34 -59 -16 -71 8 -5 38 -17 68 -26 29 -10 55
-23 58 -30 4 -11 -89 -424 -105 -466 -5 -13 -54 83 -167 327 l-160 345 -125
31 c-69 16 -131 30 -137 30 -6 0 -14 -13 -18 -30z"/>
<path d="M6620 13672 c-102 -20 -187 -37 -189 -38 -2 -2 0 -20 4 -40 l6 -37
55 6 c38 4 56 2 59 -6 14 -37 133 -703 127 -708 -4 -3 -29 -12 -55 -19 -47
-13 -48 -14 -41 -44 3 -17 9 -34 13 -37 6 -7 410 67 419 76 2 2 1 20 -2 39
l-7 34 -54 -5 -54 -6 -10 39 c-5 22 -35 174 -66 339 -30 165 -57 309 -60 321
-4 17 4 23 51 38 49 16 55 20 50 39 -3 12 -6 28 -6 35 0 18 -32 14 -240 -26z"/>
<path d="M7737 13625 c-78 -29 -144 -91 -188 -175 -20 -38 -24 -60 -24 -135 0
-78 4 -97 28 -147 73 -148 236 -218 396 -169 94 29 176 105 210 196 60 158
-14 342 -165 415 -61 30 -198 38 -257 15z m242 -59 c44 -23 103 -84 126 -131
15 -31 20 -60 20 -125 0 -102 -20 -146 -90 -208 -189 -166 -478 -24 -463 228
5 79 29 132 85 187 41 39 102 67 163 75 41 5 125 -9 159 -26z"/>
<path d="M7776 13497 l-29 -13 26 -17 c29 -19 37 -63 15 -85 -21 -21 -65 -14
-87 14 l-21 26 -11 -28 c-34 -87 -15 -170 52 -228 63 -54 156 -65 225 -28 66
35 111 130 99 208 -17 118 -160 197 -269 151z"/>
<path d="M7490 13580 c-141 -19 -262 -66 -394 -154 -72 -48 -202 -166 -183
-166 4 0 36 18 72 40 152 93 298 150 439 171 69 11 72 12 101 57 36 55 39 62
28 61 -4 -1 -33 -5 -63 -9z"/>
<path d="M5883 13500 c-138 -25 -257 -102 -308 -200 -58 -111 0 -271 119 -332
65 -33 93 -39 239 -48 187 -12 227 -36 227 -139 0 -39 -5 -49 -43 -85 -48 -46
-100 -66 -174 -66 l-51 0 -36 70 c-21 39 -43 70 -50 70 -30 0 -107 -33 -103
-44 3 -7 15 -48 27 -91 12 -44 27 -86 32 -92 16 -20 162 -16 244 5 107 29 179
69 240 134 107 117 110 263 6 364 -57 55 -126 75 -292 83 -92 5 -156 13 -174
22 -44 21 -71 64 -71 112 0 79 67 136 170 145 l50 4 30 -61 c40 -84 44 -87
105 -65 27 10 50 22 50 27 0 21 -44 163 -54 174 -15 16 -120 24 -183 13z"/>
<path d="M8665 13344 c-83 -69 -277 -163 -383 -185 -53 -11 -61 -16 -83 -53
-13 -23 -25 -44 -27 -47 -2 -4 30 -1 70 7 151 29 366 161 450 277 24 34 13 34
-27 1z"/>
<path d="M10012 13265 c-28 -58 -52 -110 -52 -115 0 -10 71 -50 88 -50 5 0 30
32 56 70 25 39 49 70 52 70 3 0 39 -15 79 -34 l75 -35 -16 -38 c-22 -52 -285
-617 -290 -622 -2 -3 -28 3 -58 12 -29 9 -56 17 -59 17 -7 0 -40 -60 -35 -65
2 -2 93 -44 203 -95 110 -51 203 -94 207 -96 6 -4 38 47 38 61 0 3 -22 19 -50
36 -27 17 -50 35 -50 39 0 14 291 641 305 658 4 5 155 -69 155 -76 0 -4 -9
-36 -20 -72 -11 -36 -20 -72 -20 -81 0 -12 88 -66 94 -57 21 30 97 231 90 238
-10 10 -720 340 -732 340 -4 0 -31 -47 -60 -105z"/>
<path d="M7183 13241 c-28 -4 -55 -9 -58 -13 -8 -8 109 -111 212 -184 110 -79
244 -146 358 -180 127 -38 305 -44 425 -16 152 37 298 115 418 227 34 32 61
59 59 61 -2 2 -42 -18 -88 -46 -95 -56 -225 -110 -344 -140 -115 -30 -301 -30
-410 -1 -152 41 -271 109 -396 228 -81 77 -77 76 -176 64z"/>
<path d="M4962 13103 l-182 -94 15 -29 c18 -34 28 -36 81 -14 36 15 39 15 52
-3 7 -10 83 -156 168 -325 l154 -307 -45 -31 c-25 -17 -45 -33 -45 -36 0 -3 7
-18 15 -34 l15 -30 193 96 c105 53 193 98 195 99 7 6 -29 65 -39 65 -5 0 -26
-7 -46 -15 -20 -9 -43 -13 -50 -11 -7 3 -85 149 -172 325 l-160 320 36 23 c20
13 41 26 46 30 16 10 -12 68 -32 67 -9 -1 -98 -44 -199 -96z"/>
<path d="M4450 12826 c-25 -18 -80 -58 -123 -90 l-77 -56 21 -30 22 -29 59 30
c43 22 60 26 63 17 15 -40 145 -512 143 -518 -2 -4 -108 63 -236 148 l-233
155 35 36 c41 42 42 47 18 79 l-18 23 -149 -107 c-200 -143 -192 -134 -163
-169 l24 -27 34 20 35 21 378 -245 378 -244 30 22 c17 13 27 28 24 37 -2 9
-57 200 -120 425 l-116 409 36 37 37 38 -18 26 c-11 14 -23 25 -29 25 -5 0
-30 -15 -55 -33z"/>
<path d="M11095 12813 c-18 -27 -18 -27 23 -65 l41 -38 -81 -118 c-74 -107
-325 -460 -335 -472 -2 -3 -27 7 -54 22 l-49 26 -22 -30 c-21 -30 -21 -31 -2
-45 88 -66 586 -414 588 -411 2 1 36 45 76 97 l73 94 -24 18 c-63 48 -65 48
-127 -14 l-58 -58 -115 81 c-63 45 -113 86 -111 93 3 11 136 207 172 254 l17
22 67 -46 c36 -25 66 -50 66 -55 0 -5 -11 -30 -24 -57 l-25 -48 29 -22 c16
-11 31 -21 34 -21 5 0 186 255 186 262 0 2 -14 15 -32 28 l-32 23 -40 -46 -41
-47 -65 45 c-36 25 -66 49 -68 54 -2 6 143 217 168 245 6 6 124 -69 218 -140
2 -1 -13 -34 -32 -73 -20 -39 -36 -73 -36 -75 0 -3 20 -19 45 -36 l45 -31 65
101 c36 55 65 102 65 105 0 7 -568 405 -578 405 -5 0 -18 -12 -27 -27z"/>
<path d="M3424 12013 c-153 -165 -144 -151 -109 -178 l28 -24 56 50 c30 27 59
48 64 46 12 -4 366 -331 363 -334 -1 -2 -172 10 -379 27 l-376 29 -64 -67
c-35 -37 -78 -83 -95 -103 l-31 -36 22 -22 c30 -27 31 -27 77 10 21 17 43 30
48 28 16 -6 520 -473 521 -483 1 -5 -14 -30 -33 -56 l-34 -48 27 -26 28 -27
127 136 c133 144 135 149 84 176 -15 8 -28 1 -72 -37 -30 -25 -57 -46 -61 -46
-4 0 -101 87 -216 194 -191 176 -207 193 -182 196 16 1 215 -11 443 -27 l415
-30 23 22 c12 11 21 27 20 33 -2 7 -137 137 -300 288 l-298 276 36 51 37 50
-23 24 c-13 14 -26 25 -30 25 -4 0 -56 -53 -116 -117z"/>
<path d="M11865 11997 c-80 -30 -138 -71 -214 -153 -143 -153 -170 -331 -77
-509 48 -92 173 -213 269 -260 l77 -38 68 63 c37 35 73 69 80 75 9 8 3 20 -30
53 l-43 41 -69 -50 c-61 -45 -72 -50 -93 -40 -44 20 -122 102 -139 146 -23 62
-16 164 18 235 68 146 241 285 380 305 98 14 213 -46 258 -136 l19 -37 -49
-66 c-28 -36 -50 -69 -50 -74 0 -4 17 -25 38 -45 l38 -37 72 73 c43 43 72 81
72 93 0 35 -58 140 -107 195 -65 72 -174 146 -251 169 -87 27 -189 26 -267 -3z"/>
<path d="M7785 11741 c-16 -15 -284 -176 -465 -279 -563 -321 -1055 -559
-1430 -693 -58 -20 -105 -40 -105 -44 0 -5 618 -247 863 -337 l32 -12 0 -313
0 -313 28 7 c49 14 322 6 417 -12 225 -43 441 -138 623 -275 56 -42 69 -48 83
-37 178 130 257 176 393 231 183 73 425 114 603 102 51 -3 99 -9 108 -12 13
-5 15 30 15 308 l0 313 188 72 187 71 3 -319 2 -319 55 0 55 0 2 342 3 343
197 75 c108 41 199 78 203 82 3 3 -18 14 -47 23 -418 138 -1163 511 -1823 914
-147 90 -172 100 -190 82z"/>
<path d="M12750 11330 l-25 -19 23 -47 c19 -39 21 -49 10 -60 -21 -20 -586
-384 -597 -384 -5 0 -24 18 -41 40 l-32 40 -29 -17 c-16 -10 -28 -23 -27 -29
6 -25 224 -354 234 -354 7 0 22 9 35 19 l24 20 -23 43 c-12 24 -22 47 -22 51
0 10 272 187 280 182 6 -4 189 -286 193 -297 1 -4 -61 -48 -138 -98 l-140 -90
-35 40 c-39 45 -45 47 -78 22 l-23 -18 117 -179 c64 -99 117 -181 118 -182 1
-1 16 7 34 18 l32 21 -26 50 c-23 46 -24 51 -8 62 9 7 147 97 306 200 l290
188 29 -34 c15 -18 28 -36 29 -40 0 -14 27 -8 50 10 28 22 34 9 -106 222
l-104 161 -30 -18 c-17 -9 -30 -21 -30 -25 0 -4 10 -28 22 -53 14 -29 19 -49
12 -53 -82 -57 -246 -163 -248 -160 -12 17 -184 286 -189 295 -6 9 149 118
231 162 24 13 27 11 78 -57 9 -13 15 -12 43 4 17 10 29 24 27 30 -9 22 -228
354 -235 354 -3 0 -17 -9 -31 -20z"/>
<path d="M2465 10799 c-99 -160 -181 -296 -183 -303 -1 -6 11 -19 27 -29 l29
-17 35 43 36 42 43 -24 c43 -24 569 -349 576 -355 2 -2 -8 -27 -22 -55 l-26
-50 30 -16 c17 -9 35 -13 40 -10 9 6 365 581 375 606 8 21 -182 154 -199 140
-6 -5 -20 -26 -31 -47 l-20 -37 62 -56 62 -56 -75 -122 -76 -121 -148 89 -149
90 42 69 c23 39 48 70 55 70 7 0 25 -6 40 -14 56 -28 67 -28 86 5 15 26 16 33
5 43 -31 29 -252 157 -263 153 -6 -3 -18 -17 -26 -32 -14 -27 -14 -28 32 -67
l47 -40 -41 -66 c-23 -37 -43 -69 -45 -71 -3 -5 -203 115 -240 144 l-25 21 57
94 c82 133 69 126 156 92 l74 -30 27 42 c16 22 28 44 28 48 0 8 -193 118 -207
118 -5 0 -89 -131 -188 -291z"/>
<path d="M3930 10159 c-126 -76 -271 -234 -334 -364 -63 -129 -80 -210 -81
-375 0 -137 18 -280 35 -280 18 0 146 130 205 208 155 206 219 396 232 685 7
164 7 164 -57 126z"/>
<path d="M11643 10033 c13 -297 74 -477 238 -693 65 -86 184 -204 198 -196 36
23 48 356 18 481 -21 82 -91 233 -137 290 -90 115 -265 265 -308 265 -13 0
-14 -19 -9 -147z"/>
<path d="M6745 9634 c-91 -10 -208 -38 -335 -79 -186 -61 -422 -120 -565 -141
-209 -31 -480 -20 -583 23 -19 8 -36 13 -37 11 -3 -3 114 -440 119 -446 2 -1
52 4 112 12 172 23 393 70 603 131 247 70 358 93 515 104 319 22 626 -38 900
-176 91 -46 212 -121 284 -177 l57 -44 30 25 c66 53 214 148 305 193 280 140
589 201 904 179 159 -11 267 -33 516 -104 214 -61 428 -107 601 -130 62 -8
113 -14 115 -12 5 5 121 442 119 445 -2 2 -12 -1 -22 -6 -84 -46 -384 -60
-598 -29 -138 21 -370 78 -565 141 -205 67 -280 80 -460 80 -162 0 -224 -9
-369 -50 -180 -52 -381 -164 -516 -287 l-60 -54 -55 49 c-171 153 -411 274
-641 323 -73 16 -297 27 -374 19z"/>
<path d="M3025 9298 c-40 -117 -58 -438 -31 -552 46 -196 210 -358 378 -374
l50 -5 -6 -46 c-18 -141 -29 -311 -38 -611 -5 -184 -12 -381 -15 -437 -4 -99
-3 -103 16 -103 13 0 21 -7 21 -17 1 -100 65 -508 115 -733 20 -85 42 -201 51
-258 17 -114 28 -153 44 -150 5 2 34 -69 64 -157 146 -434 351 -872 619 -1325
105 -176 300 -476 340 -520 18 -19 -13 8 -68 61 -121 115 -177 161 -273 224
-227 146 -418 171 -644 84 -110 -43 -111 -44 -40 -136 254 -332 533 -486 776
-429 87 21 184 68 240 117 l43 38 119 -120 c317 -320 689 -626 1068 -878 243
-161 347 -220 574 -326 250 -117 657 -270 1050 -396 l73 -23 -43 -12 c-393
-110 -511 -144 -663 -190 -99 -31 -231 -75 -294 -100 -116 -45 -271 -121 -271
-133 0 -14 180 -101 208 -101 17 0 56 15 89 33 118 67 348 150 708 257 77 23
228 69 335 102 l194 60 131 -40 c71 -22 222 -68 335 -103 366 -110 593 -189
718 -250 67 -32 132 -59 145 -59 22 0 207 90 207 101 0 10 -154 87 -255 127
-130 52 -444 149 -818 252 -103 29 -186 54 -185 56 2 2 142 51 312 109 633
217 952 361 1291 582 418 274 729 524 1099 884 l171 167 42 -38 c55 -48 152
-95 239 -116 243 -57 511 91 772 424 l65 84 -24 19 c-31 24 -148 66 -218 79
-231 43 -474 -63 -750 -324 -64 -61 -104 -97 -89 -81 62 70 343 521 485 780
187 340 356 723 472 1070 30 90 55 150 63 150 14 0 31 67 48 185 6 41 26 145
45 231 44 195 79 400 101 592 15 132 19 147 36 147 18 0 19 7 15 98 -3 53 -10
248 -15 432 -10 302 -21 489 -38 621 l-6 46 49 5 c71 7 174 58 237 118 116
109 162 258 153 489 -5 129 -29 291 -47 321 -13 21 -137 -58 -204 -130 -65
-71 -106 -146 -137 -252 -17 -59 -22 -109 -26 -263 l-6 -189 -27 84 c-15 47
-33 117 -39 155 -26 154 -64 346 -68 342 -2 -2 7 -65 21 -138 13 -74 27 -154
31 -179 l6 -45 -32 57 c-55 99 -120 163 -216 210 -83 41 -88 42 -187 43 -114
0 -156 -8 -156 -31 0 -30 80 -220 124 -293 60 -101 105 -152 181 -206 79 -57
157 -85 252 -92 72 -6 73 -6 78 -37 11 -71 26 -316 31 -536 l5 -235 -24 57
c-53 125 -111 195 -211 253 -63 37 -166 65 -238 65 l-58 0 0 -46 c0 -25 9 -91
20 -145 41 -198 112 -344 212 -434 53 -48 188 -120 242 -131 39 -7 37 17 11
-204 -18 -145 -58 -390 -84 -505 l-18 -80 -11 77 c-28 185 -116 314 -268 395
-62 33 -182 69 -193 58 -3 -4 -6 -100 -5 -213 0 -197 1 -211 27 -287 52 -157
150 -278 290 -362 l64 -37 -42 -126 c-76 -223 -250 -648 -261 -637 -2 2 0 28
6 57 5 29 10 97 10 151 0 106 -20 182 -72 270 -51 87 -165 184 -261 224 l-38
16 -15 -36 c-60 -145 -90 -415 -60 -555 26 -126 85 -230 188 -334 49 -50 86
-96 84 -103 -12 -29 -194 -326 -263 -428 -90 -132 -325 -446 -349 -466 -9 -7
10 23 41 66 103 143 174 305 196 444 18 121 -17 269 -91 375 -37 55 -135 152
-171 171 -25 13 -26 12 -61 -48 -96 -169 -158 -373 -158 -517 0 -159 61 -322
170 -457 l50 -62 -148 -139 c-231 -220 -532 -476 -532 -454 0 5 12 19 26 33
78 73 181 248 209 356 47 179 -8 371 -154 543 l-30 35 -40 -39 c-97 -95 -229
-314 -273 -456 -18 -61 -23 -97 -23 -190 1 -132 24 -233 81 -345 18 -37 31
-71 28 -76 -7 -12 -277 -198 -397 -272 -388 -243 -772 -401 -1602 -658 -110
-34 -209 -61 -220 -61 -23 0 -300 84 -590 179 -565 185 -902 333 -1232 540
-121 75 -390 260 -398 272 -2 5 13 46 34 92 57 124 75 204 75 334 0 98 -4 121
-33 207 -49 144 -173 348 -267 439 l-35 34 -44 -50 c-52 -58 -116 -177 -139
-254 -20 -69 -21 -199 -1 -276 29 -110 100 -232 212 -365 83 -97 -329 255
-550 470 l-107 105 50 60 c28 33 71 99 95 147 114 227 99 453 -51 755 l-65
133 -29 -15 c-58 -30 -164 -148 -203 -225 -91 -181 -84 -342 23 -568 27 -56
74 -139 105 -185 70 -104 23 -50 -105 118 -156 207 -426 620 -456 698 -4 11
21 42 78 99 179 179 234 361 194 637 -16 103 -58 266 -75 283 -10 12 -100 -35
-169 -87 -79 -60 -155 -165 -183 -254 -23 -75 -28 -231 -9 -315 6 -27 9 -51 7
-53 -5 -4 -118 248 -168 376 -17 42 -55 147 -84 233 l-54 157 62 33 c81 43
203 165 244 243 18 34 42 97 55 140 21 71 23 101 23 277 0 108 -3 199 -6 203
-12 11 -132 -26 -201 -62 -81 -42 -165 -127 -206 -209 -28 -55 -60 -177 -63
-236 -4 -83 -97 444 -114 647 -3 39 -8 80 -10 91 -4 19 2 23 43 34 182 45 331
197 402 410 27 79 60 246 60 300 l0 40 -56 0 c-116 0 -234 -46 -322 -125 -56
-50 -90 -101 -129 -193 l-24 -57 5 240 c5 220 19 454 31 531 5 31 6 31 78 37
168 13 310 105 412 267 56 89 145 292 145 331 0 16 -117 31 -190 25 -151 -12
-288 -106 -369 -254 l-32 -57 7 50 c4 28 15 95 25 150 11 55 19 107 18 115 -2
22 -25 -88 -50 -235 -12 -71 -34 -168 -49 -215 -16 -47 -30 -94 -32 -104 -1
-11 -3 68 -3 175 0 224 -14 303 -72 422 -43 85 -140 187 -224 235 -63 36 -68
37 -74 20z m9212 -870 c-3 -7 -5 -2 -5 12 0 14 2 19 5 13 2 -7 2 -19 0 -25z"/>
<path d="M6525 9114 c-127 -18 -242 -43 -375 -81 -467 -134 -768 -182 -1060
-169 -140 6 -255 23 -313 47 -15 7 -30 10 -32 7 -6 -6 142 -500 153 -509 10
-9 232 7 367 26 164 24 386 70 605 126 278 71 401 90 626 96 204 6 316 -3 494
-38 239 -47 526 -165 721 -294 54 -36 101 -65 104 -65 4 0 35 20 69 43 221
157 497 268 821 329 104 20 152 23 365 23 283 0 369 -12 695 -96 339 -86 666
-142 885 -151 l85 -3 77 254 c43 140 77 256 75 257 -2 2 -25 -3 -52 -12 -100
-30 -282 -47 -440 -41 -257 10 -483 50 -835 149 -286 80 -386 98 -565 105
-431 16 -786 -106 -1161 -400 -23 -18 -24 -18 -86 36 -129 109 -327 216 -523
282 -171 58 -287 77 -490 80 -99 2 -193 1 -210 -1z"/>
<path d="M3531 9034 c0 -11 3 -14 6 -6 3 7 2 16 -1 19 -3 4 -6 -2 -5 -13z"/>
<path d="M6360 8523 c-122 -12 -272 -41 -459 -89 -421 -106 -700 -151 -1007
-161 -194 -6 -350 5 -473 36 -49 12 -71 14 -71 7 0 -7 38 -122 84 -256 l84
-245 48 -9 c86 -15 467 -10 600 8 221 30 406 66 654 127 135 33 256 62 270 65
99 23 234 36 411 41 218 6 338 -5 543 -48 211 -45 489 -162 672 -285 45 -30
89 -54 98 -54 8 0 54 25 100 55 254 166 532 268 853 316 129 19 176 21 358 16
244 -6 352 -22 645 -96 366 -93 594 -132 902 -153 180 -12 425 2 440 25 11 17
168 481 168 496 0 8 -6 11 -15 7 -106 -40 -306 -60 -528 -53 -312 11 -565 50
-972 153 -289 73 -415 94 -615 101 -262 9 -485 -21 -730 -99 -177 -56 -446
-194 -557 -284 -23 -19 -44 -34 -48 -34 -4 0 -32 19 -63 43 -241 183 -626 328
-977 367 -84 9 -337 11 -415 3z"/>
<path d="M2750 7937 c0 -272 68 -494 190 -622 92 -95 185 -139 323 -151 l67
-7 0 34 c0 19 -7 77 -15 129 -53 326 -164 532 -344 638 -54 32 -164 72 -196
72 -25 0 -25 -1 -25 -93z"/>
<path d="M12763 8006 c-192 -72 -312 -207 -390 -438 -35 -104 -73 -294 -73
-365 l0 -43 38 0 c65 0 170 28 232 61 190 101 291 322 307 667 l6 142 -29 -1
c-16 0 -57 -10 -91 -23z"/>
<path d="M6707 7400 c-175 -53 -193 -325 -26 -410 47 -24 144 -27 195 -5 34
14 35 16 32 62 -2 40 -6 48 -23 48 -13 0 -21 -9 -25 -31 -10 -49 -18 -54 -75
-54 -93 0 -145 64 -145 177 1 109 58 183 142 183 51 0 68 -9 68 -35 0 -36 11
-55 31 -55 16 0 19 8 19 51 0 48 -2 51 -35 65 -37 15 -113 17 -158 4z"/>
<path d="M6151 7218 c-35 -101 -68 -189 -74 -195 -5 -7 -18 -13 -28 -13 -11 0
-19 -7 -19 -15 0 -12 15 -15 75 -15 60 0 75 3 75 15 0 9 -9 15 -23 15 -34 0
-37 7 -20 56 l15 44 69 0 c66 0 70 -1 80 -27 19 -51 16 -68 -13 -71 -16 -2
-28 -9 -28 -18 0 -11 19 -14 90 -14 73 0 90 3 90 15 0 9 -9 15 -23 15 -18 0
-26 9 -40 48 -9 26 -40 113 -68 195 -45 129 -54 147 -73 147 -20 0 -29 -20
-85 -182z m101 7 l26 -75 -54 0 c-30 0 -54 3 -54 7 0 15 44 143 49 143 4 0 18
-34 33 -75z"/>
<path d="M7151 7218 c-35 -101 -68 -189 -74 -195 -5 -7 -18 -13 -28 -13 -11 0
-19 -7 -19 -15 0 -12 15 -15 75 -15 60 0 75 3 75 15 0 9 -9 15 -23 15 -34 0
-37 7 -20 56 l15 44 69 0 c66 0 70 -1 80 -27 19 -51 16 -68 -13 -71 -16 -2
-28 -9 -28 -18 0 -11 19 -14 90 -14 73 0 90 3 90 15 0 9 -9 15 -23 15 -18 0
-26 9 -40 48 -9 26 -40 113 -68 195 -45 129 -54 147 -73 147 -20 0 -29 -20
-85 -182z m101 7 l26 -75 -54 0 c-30 0 -54 3 -54 7 0 15 44 143 49 143 4 0 18
-34 33 -75z"/>
<path d="M7560 7386 c0 -8 14 -17 30 -21 l30 -7 -2 -171 -3 -172 -27 -3 c-16
-2 -28 -9 -28 -18 0 -23 222 -19 275 5 52 23 102 81 111 126 12 66 0 150 -28
193 -44 65 -92 82 -236 82 -99 0 -122 -3 -122 -14z m245 -38 c47 -21 70 -74
70 -158 -1 -119 -36 -165 -134 -177 l-51 -6 0 177 0 176 45 0 c24 0 56 -5 70
-12z"/>
<path d="M8100 7386 c0 -8 14 -17 30 -21 l30 -7 -2 -171 -3 -172 -27 -3 c-16
-2 -28 -9 -28 -18 0 -12 28 -14 165 -14 l165 0 0 61 c0 52 -2 60 -17 57 -11
-2 -22 -18 -27 -41 l-10 -38 -75 3 -76 3 -3 73 -3 72 44 0 c39 0 46 -3 51 -25
4 -14 13 -25 21 -25 12 0 15 15 15 75 0 61 -3 75 -15 75 -9 0 -18 -12 -21 -30
-6 -28 -10 -30 -51 -30 l-44 0 3 73 3 72 71 3 71 3 7 -41 c5 -31 11 -40 26
-40 18 0 20 7 20 60 l0 60 -160 0 c-132 0 -160 -3 -160 -14z"/>
<path d="M8570 7386 c0 -8 13 -17 30 -21 l30 -7 0 -169 0 -169 -30 -6 c-16 -4
-30 -13 -30 -20 0 -11 18 -14 75 -14 60 0 75 3 75 15 0 8 -9 15 -20 15 -11 0
-23 6 -26 13 -2 7 -3 66 -2 132 l3 118 64 -147 c45 -104 68 -146 79 -144 8 2
43 68 81 153 l66 150 3 -105 c4 -140 -2 -170 -33 -170 -16 0 -25 -6 -25 -15 0
-12 17 -15 90 -15 71 0 90 3 90 14 0 9 -12 16 -27 18 l-28 3 -3 172 -2 171 30
7 c16 4 30 13 30 21 0 10 -14 14 -57 14 l-58 0 -70 -160 c-38 -88 -73 -156
-77 -152 -5 5 -37 75 -72 158 l-65 149 -60 3 c-48 2 -61 0 -61 -12z"/>
<path d="M9210 7386 c0 -7 12 -16 28 -19 23 -5 35 -22 80 -114 50 -102 53
-112 50 -173 -3 -63 -4 -65 -30 -68 -16 -2 -28 -9 -28 -18 0 -11 19 -14 95
-14 76 0 95 3 95 14 0 9 -12 16 -27 18 -27 3 -28 5 -31 68 -3 61 0 71 49 172
45 91 57 108 81 113 15 4 28 13 28 21 0 11 -17 14 -75 14 -60 0 -75 -3 -75
-15 0 -8 6 -15 13 -15 38 -1 39 -17 2 -91 -21 -41 -39 -76 -41 -78 -7 -7 -12
2 -49 82 l-35 78 30 6 c17 3 30 12 30 19 0 11 -21 14 -95 14 -74 0 -95 -3 -95
-14z"/>
<path d="M5520 7135 c0 -24 2 -25 75 -25 73 0 75 1 75 25 0 24 -2 25 -75 25
-73 0 -75 -1 -75 -25z"/>
<path d="M9960 7135 c0 -24 2 -25 75 -25 73 0 75 1 75 25 0 24 -2 25 -75 25
-73 0 -75 -1 -75 -25z"/>
<path d="M2750 6733 c0 -21 52 -207 76 -273 114 -318 305 -490 545 -490 86 0
169 17 169 35 0 23 -50 154 -96 254 -121 260 -281 415 -479 466 -61 15 -215
21 -215 8z"/>
<path d="M12660 6724 c-226 -60 -396 -250 -534 -601 -48 -124 -48 -129 14
-142 166 -36 330 11 453 127 122 117 219 325 281 605 l6 27 -82 -1 c-46 0
-108 -7 -138 -15z"/>
<path d="M4860 5911 c-53 -4 -87 -9 -77 -13 15 -6 17 -22 17 -122 0 -99 -2
-116 -17 -125 -14 -8 -2 -10 47 -10 49 0 61 2 48 10 -13 7 -18 23 -18 59 l0
50 57 0 c38 0 62 -5 75 -17 17 -15 18 -14 18 30 l0 47 -20 -20 c-15 -15 -33
-20 -75 -20 l-55 0 0 55 0 55 39 0 c29 0 43 -6 54 -22 16 -23 16 -22 16 15 1
20 -2 36 -6 35 -5 -1 -51 -4 -103 -7z"/>
<path d="M5395 5905 c-72 -26 -106 -95 -85 -174 18 -69 97 -110 184 -97 154
23 169 234 20 275 -50 14 -70 13 -119 -4z m129 -48 c31 -42 29 -137 -4 -172
-33 -35 -91 -35 -118 0 -39 49 -36 142 5 187 26 29 90 21 117 -15z"/>
<path d="M5687 5898 c-3 -13 -11 -72 -18 -131 -11 -95 -15 -110 -33 -117 -16
-7 -8 -9 29 -9 32 -1 45 2 36 8 -10 7 -11 22 -5 72 l9 64 45 -77 c42 -73 60
-93 60 -67 0 6 17 41 37 77 l38 67 8 -64 c7 -50 6 -65 -4 -72 -9 -5 11 -9 50
-9 54 0 62 2 48 13 -13 9 -22 44 -34 135 -9 67 -20 122 -24 122 -4 0 -31 -40
-59 -90 -28 -49 -53 -90 -55 -90 -2 0 -30 43 -61 95 -31 52 -58 95 -59 95 -2
0 -5 -10 -8 -22z"/>
<path d="M6450 5911 c-53 -4 -87 -9 -77 -13 15 -6 17 -22 17 -122 0 -99 -2
-116 -17 -125 -13 -8 11 -10 88 -11 l107 0 6 31 c10 50 8 52 -20 20 -21 -25
-33 -31 -65 -31 l-39 0 0 50 0 50 35 0 c22 0 38 -6 44 -17 8 -14 10 -7 11 32
0 48 -1 49 -16 27 -10 -14 -25 -22 -45 -22 -29 0 -29 1 -29 55 l0 55 39 0 c30
0 44 -6 55 -22 16 -22 16 -22 16 15 0 20 -3 36 -7 35 -5 -1 -51 -4 -103 -7z"/>
<path d="M6683 5901 c-56 -26 -77 -61 -77 -127 0 -117 116 -179 231 -123 40
19 43 24 43 59 0 27 6 42 18 49 13 8 1 10 -48 10 -36 -1 -57 -3 -47 -6 20 -5
24 -72 5 -91 -17 -17 -84 -15 -102 3 -23 23 -38 90 -30 132 16 84 106 114 158
52 l26 -31 0 35 c0 40 -8 45 -83 52 -39 4 -62 1 -94 -14z"/>
<path d="M7098 5793 c4 -114 3 -128 -14 -140 -15 -11 -9 -13 47 -12 35 1 56 3
47 6 -15 4 -18 16 -18 80 l0 76 23 -19 c12 -10 55 -50 95 -88 l72 -70 0 131
c0 115 2 133 18 142 13 8 1 10 -48 10 -49 0 -61 -2 -47 -10 14 -8 17 -24 17
-87 l0 -76 -72 70 c-40 38 -84 79 -98 92 l-26 22 4 -127z"/>
<path d="M7428 5793 c4 -114 3 -128 -14 -140 -15 -11 -9 -13 47 -12 35 1 56 3
47 6 -15 4 -18 16 -18 80 l0 76 23 -19 c12 -10 55 -50 95 -88 l72 -70 0 131
c0 115 2 133 18 142 13 8 1 10 -48 10 -49 0 -61 -2 -47 -10 14 -8 17 -24 17
-87 l0 -76 -72 70 c-40 38 -84 79 -98 92 l-26 22 4 -127z"/>
<path d="M7820 5911 c-53 -4 -87 -9 -77 -13 15 -6 17 -22 17 -127 0 -105 -2
-120 -17 -124 -10 -3 30 -5 88 -6 l107 -1 10 40 c5 23 6 40 1 40 -5 0 -9 -4
-9 -10 0 -23 -41 -50 -75 -50 l-35 0 0 50 c0 49 1 50 30 50 17 0 33 -7 39 -17
8 -14 10 -7 10 32 0 28 -3 43 -6 35 -8 -20 -24 -30 -50 -30 -21 0 -23 5 -23
55 l0 55 34 0 c25 0 39 -7 50 -22 16 -22 16 -22 16 15 0 20 -3 36 -7 35 -5 -1
-51 -4 -103 -7z"/>
<path d="M8340 5883 c0 -36 15 -44 23 -13 4 15 14 20 41 20 l36 0 0 -115 c0
-98 -2 -115 -17 -124 -14 -8 -2 -10 47 -10 49 0 61 2 48 10 -16 9 -18 26 -18
124 l0 115 36 0 c27 0 37 -5 41 -20 8 -31 23 -23 23 13 l0 32 -130 0 -130 0 0
-32z"/>
<path d="M8705 5909 c-17 -4 -44 -22 -60 -39 -27 -28 -30 -38 -30 -95 0 -54 4
-68 25 -90 51 -56 132 -70 207 -36 51 24 73 63 73 130 0 42 -5 56 -31 85 -43
50 -111 67 -184 45z m115 -39 c26 -26 34 -60 28 -121 -6 -61 -30 -89 -74 -89
-46 0 -63 8 -79 41 -30 56 -14 151 29 181 21 15 76 8 96 -12z"/>
<path d="M10405 5910 c-49 -3 -84 -7 -77 -8 9 -2 12 -35 12 -126 0 -90 -3
-126 -12 -129 -7 -3 33 -6 89 -6 93 -1 102 1 107 19 3 11 9 30 12 43 6 19 2
17 -24 -10 -23 -26 -38 -33 -66 -33 l-36 0 0 50 c0 49 1 50 30 50 18 0 33 -6
36 -15 12 -30 24 -14 24 32 l0 47 -20 -22 c-12 -12 -32 -22 -45 -22 -24 0 -25
3 -25 55 0 54 0 55 29 55 39 0 61 -9 61 -26 0 -8 5 -14 11 -14 13 0 8 63 -6
65 -5 0 -50 -2 -100 -5z"/>
<path d="M5033 5899 c15 -9 17 -26 17 -129 0 -104 -2 -119 -17 -123 -10 -3 11
-5 47 -5 36 0 59 2 53 5 -9 3 -13 26 -13 64 0 68 12 70 37 8 22 -56 56 -79
112 -78 38 0 42 2 26 10 -12 6 -36 32 -54 60 l-34 49 21 23 c31 33 29 80 -4
106 -23 18 -40 21 -118 21 -67 -1 -86 -3 -73 -11z m128 -19 c13 -7 19 -21 19
-43 0 -37 -15 -57 -42 -57 -15 0 -18 9 -18 55 0 57 6 63 41 45z"/>
<path d="M6113 5899 c15 -9 17 -26 17 -129 0 -104 -2 -119 -17 -124 -10 -2 29
-4 85 -3 96 2 105 4 123 26 26 31 24 67 -4 95 -20 20 -22 26 -10 42 19 27 16
52 -12 79 -22 23 -32 25 -112 25 -65 -1 -83 -3 -70 -11z m121 -25 c29 -28 14
-84 -21 -84 -9 0 -13 16 -13 50 0 52 8 60 34 34z m10 -107 c24 -18 25 -76 1
-93 -36 -27 -45 -18 -45 46 0 63 9 73 44 47z"/>
<path d="M6933 5899 c15 -9 17 -26 17 -129 0 -104 -2 -119 -17 -123 -10 -3 11
-5 47 -5 36 0 59 2 53 5 -10 3 -13 39 -13 128 0 89 3 125 13 128 6 3 -17 6
-53 6 -49 0 -61 -2 -47 -10z"/>
<path d="M7983 5903 c15 -4 17 -19 17 -128 0 -109 -2 -124 -17 -128 -10 -3 14
-5 52 -5 39 0 62 2 53 5 -15 4 -18 16 -18 64 0 70 9 70 45 -1 29 -58 48 -70
107 -70 41 0 42 0 20 15 -12 9 -35 36 -52 60 l-31 44 21 21 c20 20 27 74 12
96 -16 25 -55 34 -139 33 -48 -1 -80 -3 -70 -6z m135 -25 c7 -7 12 -26 12 -43
0 -35 -15 -55 -42 -55 -15 0 -18 9 -18 55 0 46 3 55 18 55 10 0 23 -5 30 -12z"/>
<path d="M9053 5899 c15 -9 17 -26 17 -129 0 -104 -2 -119 -17 -124 -10 -2 29
-4 85 -3 96 2 105 4 123 26 26 31 24 67 -4 95 -20 20 -22 26 -10 42 19 27 16
52 -12 79 -22 23 -32 25 -112 25 -65 -1 -83 -3 -70 -11z m121 -25 c29 -28 14
-84 -21 -84 -9 0 -13 16 -13 50 0 52 8 60 34 34z m10 -107 c24 -18 25 -76 1
-93 -36 -27 -45 -18 -45 46 0 63 9 73 44 47z"/>
<path d="M9308 5903 c8 -3 12 -31 13 -86 0 -107 14 -147 59 -170 50 -26 123
-18 158 17 25 25 27 34 31 129 2 62 7 105 15 109 6 4 -9 7 -34 7 -25 0 -39 -3
-32 -6 8 -3 12 -33 12 -102 0 -118 -11 -141 -70 -141 -59 0 -70 23 -70 141 0
69 4 99 13 102 6 3 -15 5 -48 5 -33 0 -54 -2 -47 -5z"/>
<path d="M9628 5903 c9 -3 12 -39 12 -128 0 -89 -3 -125 -12 -128 -7 -3 16 -5
52 -5 36 0 57 2 48 5 -16 4 -18 19 -18 123 0 103 2 120 18 129 13 8 1 10 -48
10 -36 0 -59 -3 -52 -6z"/>
<path d="M9773 5899 c15 -9 17 -26 17 -129 0 -104 -2 -119 -17 -123 -10 -3 30
-5 88 -6 l107 -1 10 40 c5 23 6 40 1 40 -5 0 -9 -4 -9 -10 0 -23 -41 -50 -75
-50 l-35 0 0 119 c0 86 3 121 13 124 6 3 -17 6 -53 6 -49 0 -61 -2 -47 -10z"/>
<path d="M10013 5899 c15 -9 17 -26 17 -124 0 -98 -2 -115 -17 -124 -13 -8 9
-10 82 -11 82 0 106 4 132 20 88 54 81 197 -12 236 -41 17 -232 20 -202 3z
m174 -33 c25 -22 28 -30 28 -91 0 -61 -3 -69 -28 -91 -18 -15 -41 -24 -63 -24
l-34 0 0 115 0 115 34 0 c22 0 45 -9 63 -24z"/>
<path d="M10573 5899 c15 -9 17 -26 17 -124 0 -98 -2 -115 -17 -124 -14 -8 -2
-10 47 -10 49 0 61 2 48 10 -16 9 -18 26 -18 124 0 107 1 115 19 115 25 0 51
-26 51 -51 0 -31 -19 -59 -39 -59 -17 0 -16 -5 11 -55 37 -69 58 -83 128 -85
78 -3 80 -3 80 24 0 13 -6 26 -12 29 -19 6 -48 -11 -48 -28 0 -27 -17 -16 -59
40 l-41 54 25 25 c32 32 32 70 0 101 -22 23 -31 25 -117 25 -68 -1 -88 -3 -75
-11z"/>
<path d="M3125 5515 c-5 -2 -29 -9 -52 -15 -24 -6 -43 -16 -43 -23 0 -25 79
-176 143 -274 75 -116 176 -227 252 -278 160 -106 349 -120 519 -40 l57 27
-30 51 c-99 171 -276 375 -396 454 -65 43 -144 77 -215 93 -42 9 -213 13 -235
5z"/>
<path d="M12249 5505 c-124 -31 -247 -112 -366 -239 -71 -76 -177 -219 -226
-305 l-28 -49 56 -27 c275 -130 545 -22 763 305 58 87 152 264 152 286 0 35
-246 56 -351 29z"/>
<path d="M5300 5381 c-45 -4 -68 -9 -57 -13 15 -6 17 -22 17 -127 0 -105 -2
-120 -17 -124 -10 -3 59 -5 152 -5 94 0 164 2 158 5 -14 5 -15 56 -4 107 6 27
8 26 50 -48 37 -65 61 -87 61 -56 0 5 17 37 37 72 l38 63 7 -65 c5 -46 4 -66
-5 -72 -7 -4 17 -7 53 -7 36 1 58 3 48 6 -19 5 -23 19 -39 148 -6 55 -14 105
-18 112 -3 7 -30 -29 -60 -82 -30 -52 -58 -92 -62 -90 -4 3 -31 45 -60 95 -29
49 -56 86 -60 82 -3 -4 -12 -56 -18 -117 -15 -133 -18 -145 -38 -145 -12 0
-14 7 -8 37 l7 37 -30 -32 c-25 -27 -37 -32 -76 -32 l-46 0 0 50 0 50 35 0
c22 0 38 -6 44 -17 8 -14 10 -7 10 32 0 28 -3 43 -6 35 -8 -21 -24 -30 -55
-30 -27 0 -28 2 -28 55 0 61 16 73 44 33 16 -22 16 -22 16 15 0 20 -3 36 -7
35 -5 -1 -42 -4 -83 -7z"/>
<path d="M6195 5375 c-72 -26 -106 -95 -85 -174 18 -69 97 -110 184 -97 154
23 169 234 20 275 -50 14 -70 13 -119 -4z m129 -48 c31 -42 29 -137 -4 -172
-33 -35 -91 -35 -118 0 -39 49 -36 142 5 187 26 29 90 21 117 -15z"/>
<path d="M6625 5375 c-5 -11 -21 -49 -35 -84 l-27 -64 -23 68 c-19 56 -20 69
-9 76 9 5 -10 9 -50 9 -54 0 -62 -2 -49 -12 9 -7 38 -71 64 -141 25 -70 48
-127 49 -125 1 2 17 39 34 83 18 44 34 81 37 84 2 2 22 -36 45 -85 l41 -89 33
110 c50 163 51 167 78 163 21 -3 22 -7 25 -125 2 -109 1 -122 -15 -126 -10 -3
30 -5 88 -6 l107 -1 10 40 c5 23 6 40 1 40 -5 0 -9 -4 -9 -10 0 -23 -41 -50
-75 -50 l-35 0 0 50 c0 49 1 50 30 50 17 0 33 -7 39 -17 8 -14 10 -7 10 32 0
28 -3 43 -6 35 -8 -20 -24 -30 -50 -30 -21 0 -23 5 -23 55 l0 55 34 0 c25 0
39 -7 50 -22 16 -22 16 -22 16 16 0 31 -3 37 -16 32 -9 -3 -73 -6 -142 -6 -70
0 -122 -4 -115 -8 9 -6 8 -22 -4 -70 -8 -34 -18 -62 -22 -62 -3 0 -22 35 -42
78 -30 64 -38 74 -44 57z"/>
<path d="M7795 5375 c-72 -26 -106 -95 -85 -174 18 -69 97 -110 184 -97 154
23 169 234 20 275 -50 14 -70 13 -119 -4z m129 -48 c31 -42 29 -137 -4 -172
-33 -35 -91 -35 -118 0 -39 49 -36 142 5 187 26 29 90 21 117 -15z"/>
<path d="M8830 5381 c-53 -4 -87 -9 -77 -13 15 -6 17 -22 17 -122 0 -99 -2
-116 -17 -125 -14 -8 -2 -10 47 -10 49 0 61 2 48 10 -13 7 -18 23 -18 59 0 47
1 50 27 50 14 0 35 -7 45 -17 17 -15 18 -14 18 30 l0 47 -20 -20 c-11 -11 -31
-20 -45 -20 -24 0 -25 3 -25 55 l0 55 39 0 c29 0 43 -6 54 -22 16 -23 16 -22
16 15 1 20 -2 36 -6 35 -5 -1 -51 -4 -103 -7z"/>
<path d="M9270 5350 c0 -34 0 -34 16 -12 10 14 25 22 45 22 l29 0 0 -119 c0
-105 -2 -120 -17 -124 -10 -3 14 -5 52 -5 39 0 62 2 53 5 -16 4 -18 19 -18
124 l0 119 29 0 c20 0 35 -8 45 -22 16 -22 16 -22 16 12 l0 35 -125 0 -125 0
0 -35z"/>
<path d="M10225 5380 c-49 -3 -84 -7 -77 -8 9 -2 12 -35 12 -127 0 -118 -1
-125 -20 -125 -21 0 -51 28 -82 78 l-20 33 21 23 c30 32 28 79 -5 105 -23 18
-40 21 -118 21 -67 -1 -86 -3 -73 -11 15 -9 17 -26 17 -129 0 -104 -2 -119
-17 -123 -10 -3 11 -5 47 -5 36 0 59 2 53 5 -9 3 -13 26 -13 64 0 68 12 70 37
8 29 -72 46 -79 209 -79 134 0 143 1 148 20 3 11 9 30 12 43 6 19 2 17 -24
-10 -23 -26 -38 -33 -66 -33 l-36 0 0 50 c0 49 1 50 30 50 18 0 33 -6 36 -15
12 -30 24 -14 24 32 l0 47 -20 -22 c-12 -12 -32 -22 -45 -22 -24 0 -25 3 -25
55 0 54 0 55 29 55 39 0 61 -9 61 -26 0 -8 5 -14 11 -14 13 0 8 63 -6 65 -5 0
-50 -2 -100 -5z m-234 -30 c13 -7 19 -21 19 -43 0 -37 -15 -57 -42 -57 -15 0
-18 9 -18 55 0 57 6 63 41 45z"/>
<path d="M5874 5364 c23 -22 23 -216 0 -238 -14 -15 -10 -16 48 -16 48 1 59 3
46 11 -16 9 -18 26 -18 124 0 105 2 115 18 115 24 0 52 -31 52 -57 0 -21 -29
-53 -48 -53 -23 0 -12 -20 15 -26 59 -15 116 51 93 107 -18 42 -37 49 -135 49
-79 0 -85 -1 -71 -16z"/>
<path d="M7073 5365 c24 -23 25 -216 1 -239 -14 -15 -10 -16 48 -16 48 1 59 3
46 11 -16 9 -18 26 -18 124 0 108 1 115 20 115 50 0 63 -94 14 -106 -23 -6
-34 -24 -15 -24 5 0 15 -15 21 -34 6 -19 22 -46 35 -60 20 -22 32 -26 77 -25
39 0 48 2 32 9 -11 4 -37 31 -58 60 l-37 51 23 18 c15 13 22 29 22 55 0 59
-20 70 -131 75 -90 3 -95 2 -80 -14z"/>
<path d="M7426 5370 c11 -4 39 -39 62 -77 33 -55 42 -79 42 -116 0 -33 -5 -49
-17 -56 -14 -8 -2 -10 47 -10 49 0 61 2 48 10 -13 7 -18 23 -18 59 0 42 7 61
44 119 25 38 53 71 63 74 10 3 -7 5 -37 5 -30 0 -49 -2 -42 -5 17 -7 16 -14
-14 -67 l-26 -47 -28 48 c-20 34 -25 52 -18 61 8 9 -4 12 -58 11 -48 0 -63 -3
-48 -9z"/>
<path d="M8053 5369 c14 -8 17 -25 17 -108 0 -93 2 -100 26 -124 50 -50 145
-48 188 4 24 28 26 38 26 129 0 69 4 100 13 103 6 3 -7 6 -31 6 -41 1 -42 0
-26 -16 14 -14 16 -31 12 -105 -6 -101 -21 -128 -72 -128 -60 0 -76 30 -76
144 0 70 3 87 18 95 13 8 1 10 -48 10 -49 0 -61 -2 -47 -10z"/>
<path d="M8373 5369 c15 -9 17 -26 17 -124 0 -98 -2 -115 -17 -124 -14 -8 -2
-10 47 -10 49 0 61 2 48 10 -16 9 -18 26 -18 124 0 107 1 115 19 115 25 0 51
-26 51 -51 0 -31 -19 -59 -39 -59 -17 0 -16 -5 11 -55 37 -69 60 -85 118 -84
25 1 37 3 28 6 -9 2 -35 28 -57 58 l-41 54 25 25 c32 32 32 70 0 101 -22 23
-31 25 -117 25 -68 -1 -88 -3 -75 -11z"/>
<path d="M8973 5373 c15 -4 17 -18 17 -102 0 -84 3 -102 21 -124 41 -54 147
-60 195 -12 22 22 24 32 24 124 0 85 3 102 18 110 13 8 6 10 -33 10 -39 0 -46
-2 -32 -10 14 -8 17 -25 17 -95 0 -114 -16 -144 -76 -144 -51 0 -66 27 -72
128 -4 74 -2 91 12 105 16 16 14 17 -46 16 -35 -1 -55 -3 -45 -6z"/>
<path d="M9543 5373 c15 -4 17 -18 17 -102 0 -84 3 -102 21 -124 41 -54 147
-60 195 -12 22 22 24 32 24 124 0 85 3 102 18 110 13 8 6 10 -33 10 -39 0 -46
-2 -32 -10 14 -8 17 -25 17 -95 0 -114 -16 -144 -76 -144 -51 0 -66 27 -72
128 -4 74 -2 91 12 105 16 16 14 17 -46 16 -35 -1 -55 -3 -45 -6z"/>
<path d="M10393 5163 c-19 -7 -16 -50 3 -57 19 -7 44 10 44 30 0 16 -30 33
-47 27z"/>
<path d="M7043 4079 c-39 -11 -63 -43 -63 -84 0 -42 15 -60 80 -92 44 -23 56
-33 58 -56 3 -21 -2 -29 -20 -36 -30 -11 -56 3 -71 37 -6 15 -12 28 -13 30 -8
12 -44 -23 -44 -42 0 -38 34 -60 95 -60 64 -1 105 24 119 72 12 42 -10 75 -72
106 -27 14 -54 31 -61 40 -20 24 -9 51 22 54 23 3 29 -2 38 -27 11 -32 32 -33
56 -3 18 22 -1 49 -45 62 -20 5 -39 10 -42 9 -3 0 -19 -5 -37 -10z"/>
<path d="M7977 4080 c-40 -12 -57 -29 -57 -56 0 -21 25 -44 47 -44 5 0 13 15
18 33 7 22 16 32 30 32 16 0 21 -8 23 -38 4 -44 -18 -83 -77 -142 -25 -23 -41
-48 -41 -62 0 -22 2 -23 100 -23 l100 0 0 45 c0 48 -23 64 -35 25 -5 -17 -15
-20 -57 -20 l-50 0 66 70 c58 62 66 75 66 110 0 30 -5 43 -22 54 -31 19 -78
26 -111 16z"/>
<path d="M8264 4076 c-45 -20 -68 -85 -61 -172 6 -79 28 -115 79 -128 77 -19
128 41 128 152 0 84 -20 129 -64 147 -42 18 -43 18 -82 1z m66 -52 c13 -33 13
-155 0 -189 -13 -35 -43 -29 -51 10 -26 119 17 269 51 179z"/>
<path d="M8550 4083 c-51 -9 -78 -61 -48 -91 23 -23 47 -14 50 21 2 24 8 33
26 35 28 4 36 -16 27 -65 -5 -26 -24 -55 -66 -98 -35 -37 -59 -71 -59 -83 0
-21 4 -22 105 -22 l105 0 0 45 c0 49 -20 62 -40 25 -9 -16 -21 -20 -63 -20
l-51 0 67 68 c80 80 95 124 56 161 -12 11 -31 21 -40 21 -10 0 -23 2 -31 4 -7
2 -24 1 -38 -1z"/>
<path d="M6650 4066 c0 -7 9 -16 20 -19 18 -5 20 -14 20 -117 0 -103 -2 -112
-20 -117 -11 -3 -20 -12 -20 -19 0 -11 25 -14 125 -14 l125 0 0 40 c0 47 -24
56 -40 15 -8 -22 -16 -25 -55 -25 l-45 0 0 55 0 55 50 0 c38 0 50 4 50 15 0
11 -12 15 -50 15 l-50 0 0 51 0 50 43 -3 c35 -2 43 -7 45 -25 2 -15 10 -23 23
-23 16 0 19 7 19 40 l0 40 -120 0 c-96 0 -120 -3 -120 -14z"/>
<path d="M7260 4035 c0 -33 4 -45 15 -45 8 0 15 8 15 18 0 23 19 42 42 42 16
0 18 -11 18 -120 0 -100 -2 -120 -15 -120 -8 0 -15 -7 -15 -15 0 -12 15 -15
75 -15 48 0 75 4 75 11 0 6 -9 13 -20 16 -19 5 -20 14 -20 124 0 108 2 119 18
119 23 0 42 -19 42 -43 0 -12 6 -17 18 -15 13 2 17 13 17 43 l0 40 -132 3
-133 3 0 -46z"/>
<path d="M8846 4028 c-106 -168 -107 -178 -31 -178 48 0 55 -2 55 -20 0 -13
-7 -20 -20 -20 -11 0 -20 -7 -20 -15 0 -12 15 -15 75 -15 57 0 75 3 75 14 0 7
-9 16 -20 19 -27 7 -25 35 2 39 34 5 37 38 4 38 l-26 0 0 95 0 95 -30 0 c-26
0 -35 -8 -64 -52z m26 -75 l-4 -63 -34 0 -35 0 26 43 c14 23 31 52 37 65 14
29 14 28 10 -45z"/>
<path d="M7612 3838 c-23 -23 -7 -68 24 -68 14 0 44 27 44 40 0 13 -30 40 -44
40 -6 0 -17 -5 -24 -12z"/>
<path d="M6058 3753 c-92 -172 -107 -332 -48 -500 54 -154 232 -336 447 -459
43 -24 81 -44 84 -44 16 0 52 172 56 270 10 222 -66 401 -256 603 -72 76 -216
197 -235 197 -6 0 -28 -30 -48 -67z"/>
<path d="M9438 3762 c-40 -32 -110 -97 -154 -145 -192 -203 -264 -379 -251
-611 5 -89 35 -237 51 -253 8 -9 161 82 244 145 93 71 198 182 244 257 92 153
106 337 38 517 -23 62 -75 148 -89 148 -5 0 -43 -26 -83 -58z"/>
<path d="M4573 3476 c-113 -37 -274 -138 -272 -170 1 -30 236 -204 369 -274
232 -123 416 -139 595 -53 79 37 174 113 216 172 26 37 23 41 -86 113 -111 73
-287 161 -399 198 -78 26 -109 31 -221 34 -117 4 -137 2 -202 -20z"/>
<path d="M10693 3480 c-108 -30 -197 -65 -293 -116 -110 -59 -270 -166 -270
-181 0 -20 108 -130 168 -169 96 -64 170 -86 292 -86 89 0 119 5 197 30 51 16
135 53 187 82 100 55 281 186 331 240 l30 32 -35 30 c-52 44 -157 105 -225
129 -89 32 -283 36 -382 9z"/>
<path d="M5627 2764 c-108 -26 -213 -89 -310 -186 -49 -48 -87 -93 -85 -100
12 -37 322 -177 483 -218 263 -67 483 -16 641 148 56 58 126 169 122 192 -6
31 -306 135 -475 165 -108 18 -298 18 -376 -1z"/>
<path d="M9620 2764 c-152 -28 -456 -131 -466 -159 -14 -35 101 -195 186 -258
179 -135 400 -151 691 -52 126 43 369 162 369 181 0 18 -146 164 -200 200 -54
36 -158 80 -220 94 -63 14 -271 10 -360 -6z"/>
</g>
</svg>
